<svg xmlns="http://www.w3.org/2000/svg" width="80" height="80" viewBox="0 0 80 80">
  <defs>
    <linearGradient id="betacrm-home-logo-a" x1="74.67%" x2="50%" y1="100%" y2="0%">
      <stop offset="0%" stop-color="#264EC4"/>
      <stop offset="100%" stop-color="#3765EB"/>
    </linearGradient>
  </defs>
  <g fill="none">
    <rect width="80" height="80" fill="url(#betacrm-home-logo-a)" rx="16"/>
    <g transform="translate(19 18)">
      <ellipse cx="21.898" cy="21.2" fill="#5E81F4" opacity=".25" rx="14.731" ry="14.8"/>
      <path fill="#FFF" d="M9.15925024 19.2C5.45598209 19.1986325 2.11763353 16.9578261.699093483 13.5212205-.719446568 10.0846149.0607833389 6.12803194 2.67637872 3.49431306 6.25407828-.0981043543 12.0527728-.0981043543 15.6304724 3.49431306 17.3491567 5.21960359 18.3148148 7.560398 18.3148148 10.0012678 18.3148148 12.4421375 17.3491567 14.7829319 15.6304724 16.5082225 13.9184775 18.2387115 11.5878275 19.2081529 9.15925024 19.2zM33.8462144 44C29.4768411 44.0015319 25.7150917 40.9014172 24.8622246 36.5961338 24.0093574 32.2908504 26.3030066 27.9799771 30.340027 26.3007001 34.3770475 24.6214232 39.0326064 26.0416387 41.4586554 29.6925266 43.8847044 33.3434145 43.4052746 38.2077299 40.3136584 41.3097172 38.6011898 43.0370536 36.2728612 44.005567 33.8462144 44L33.8462144 44z" opacity=".5"/>
      <path fill="#FFF" d="M9.82677236,43.1823927 C6.17812171,43.1858182 2.8866449,40.9416485 1.48688353,37.4961531 C0.0871221663,34.0506578 0.854675365,30.0822206 3.43169698,27.4409935 C3.82565559,27.0481963 4.25375998,26.6928814 4.71071205,26.379446 L5.15234506,26.0920658 C5.46206172,25.9043889 5.78324936,25.7343067 6.12164348,25.5700894 C6.29370829,25.4938457 6.4657731,25.4117371 6.65504439,25.3413582 C7.00717588,25.2098149 7.36737516,25.1020598 7.73331719,25.0187886 L7.96273693,24.9542746 C8.00208643,24.9398539 8.04232195,24.9280987 8.0831823,24.9190852 L10.125018,24.7665978 C10.3888507,24.7665978 10.6985674,24.8193819 10.9796066,24.8604362 L11.042697,24.8604362 L11.3122652,24.8604362 L11.3982976,24.8604362 L11.48433,24.8604362 L12.0349374,24.8604362 C15.5647048,24.8269029 18.9340835,23.3481898 21.3895275,20.7550042 C23.8585576,18.1814917 25.2105149,14.6999719 25.1405403,11.0955092 L25.1405403,10.9958058 L25.1405403,10.8961025 C25.1202886,10.7838236 25.1087815,10.6700785 25.1061274,10.5559381 L25.1061274,10.2744228 L25.0315659,10.0046373 C25.0315659,9.84041999 24.9914175,9.6644729 24.985682,9.49439072 L25.1233338,7.55897277 L25.1233338,7.51205355 L25.1233338,7.47686413 C25.1233338,7.42994491 25.2093662,7.17188919 25.2093662,7.17188919 C25.2965531,6.77427126 25.4076504,6.38253339 25.5420249,5.99890861 C25.6051153,5.82296153 25.6854122,5.64701444 25.7657091,5.47106736 C25.9162929,5.12376854 26.0887187,4.78680867 26.2819035,4.46230407 L26.2819035,4.40951994 C26.3622005,4.27462718 26.4367619,4.13973441 26.5285298,4.01070655 C26.8298308,3.54638495 27.1735932,3.11238695 27.5551831,2.71456302 C31.0839181,-0.900268574 36.8102637,-0.905520187 40.3453339,2.70283321 C43.8804041,6.31118661 43.8855399,12.166735 40.3568049,15.7815666 C39.965024,16.1709979 39.5387727,16.5224415 39.0835253,16.8313842 C38.9458734,16.9310875 38.8254281,17.0014664 38.7049827,17.0777101 L38.6361568,17.1187644 C38.3034982,17.3181711 37.9823105,17.4941182 37.6725939,17.6407408 C37.4890581,17.7228494 37.3227288,17.8049581 37.1506639,17.869472 C36.7886893,18.0038735 36.419016,18.115515 36.0437137,18.2037715 C35.9642672,18.2210048 35.8857716,18.2425398 35.8085584,18.2682854 L35.6651711,18.3093397 L33.6634838,18.4500974 C33.4111221,18.4500974 33.1415539,18.4031782 32.8605147,18.3679887 L32.7343339,18.3679887 L32.4762366,18.3679887 L32.3099073,18.3679887 L32.2181394,18.3679887 L31.7707709,18.3679887 C24.4555056,18.4773683 18.5987346,24.6051356 18.6594325,32.0859965 L18.6594325,32.1856999 L18.6594325,32.2912681 C18.6749424,32.394217 18.6845181,32.4980094 18.68811,32.602108 C18.68811,32.7135411 18.68811,32.8191094 18.7167875,32.9246776 C18.7454649,33.0302459 18.7167875,33.1240843 18.7512004,33.2296526 C18.7712092,33.3813425 18.7826991,33.5340804 18.7856134,33.687115 L18.642226,35.6987767 C18.6315403,35.7522376 18.6181394,35.8050933 18.6020776,35.8571291 L18.5504581,36.038941 C18.4684062,36.4372618 18.3591644,36.8292149 18.223535,37.2119216 C18.1604446,37.3878687 18.0744122,37.5696807 17.9941153,37.7514927 C17.8483372,38.0902115 17.6856165,38.4210381 17.5065983,38.7426613 C17.4148304,38.9068785 17.328798,39.0535011 17.2312946,39.1942588 C16.9273914,39.6634915 16.5797243,40.1014973 16.1931703,40.5021321 C14.5073395,42.2329013 12.2156708,43.2040298 9.82677236,43.2 L9.82677236,43.1823927 Z"/>
    </g>
  </g>
</svg>
